<?xml version="1.0" encoding="UTF-8"?>
<svg version="1.1" xmlns="http://www.w3.org/2000/svg" width="283" height="283">
<path d="M0 0 C3.01146906 1.74028512 5.33739842 4.07399024 7.76556587 6.52657318 C8.62317144 7.37504209 8.62317144 7.37504209 9.49810237 8.24065179 C11.41614099 10.1420125 13.32325951 12.05396168 15.23057747 13.96607208 C16.60162361 15.32978086 17.97329214 16.69286415 19.34553719 18.05536652 C23.07345491 21.76102869 26.79163412 25.47631868 30.5074923 29.19406915 C33.60662599 32.29332231 36.71008477 35.38822672 39.81344622 38.48324555 C47.13094843 45.78150045 54.440231 53.08791787 61.74473763 60.39917755 C69.29098385 67.95207141 76.85188074 75.49007072 84.41995794 83.02108413 C90.90961372 89.48010319 97.3896253 95.94868774 103.86203021 102.42499322 C107.73123848 106.2962746 111.60417442 110.16363846 115.48659897 114.02166939 C119.13464359 117.64754816 122.77055999 121.28515659 126.3973217 124.93231964 C127.73340404 126.27182965 129.07380412 127.60704825 130.41869736 128.93771172 C132.2478857 130.7488687 134.06113594 132.5745882 135.87103462 134.40499115 C136.4120608 134.93349948 136.95308697 135.46200781 137.51050788 136.00653154 C140.95211281 139.53282778 140.95211281 139.53282778 141.15709877 142.15541649 C139.41681365 145.16688554 137.08310853 147.49281491 134.63052559 149.92098236 C134.06487965 150.4927194 133.49923371 151.06445645 132.91644698 151.65351886 C131.01508627 153.57155747 129.10313709 155.478676 127.19102669 157.38599396 C125.82731791 158.7570401 124.46423462 160.12870863 123.10173225 161.50095367 C119.39607008 165.2288714 115.68078009 168.94705061 111.96302962 172.66290879 C108.86377646 175.76204248 105.76887205 178.86550126 102.67385322 181.96886271 C95.37559832 189.28636492 88.0691809 196.59564749 80.75792122 203.90015411 C73.20502736 211.44640034 65.66702805 219.00729723 58.13601464 226.57537442 C51.67699558 233.06503021 45.20841103 239.54504178 38.73210555 246.0174467 C34.86082417 249.88665497 30.99346031 253.75959091 27.13542938 257.64201546 C23.50955061 261.29006008 19.87194218 264.92597648 16.22477913 268.55273819 C14.88526912 269.88882053 13.55005052 271.2292206 12.21938705 272.57411385 C10.40823007 274.40330218 8.58251057 276.21655243 6.75210762 278.02645111 C6.22359929 278.56747729 5.69509097 279.10850346 5.15056723 279.66592437 C1.62427099 283.1075293 1.62427099 283.1075293 -0.99831772 283.31251526 C-4.00978677 281.57223014 -6.33571614 279.23852502 -8.76388359 276.78594208 C-9.33562063 276.22029614 -9.90735768 275.6546502 -10.49642009 275.07186347 C-12.4144587 273.17050276 -14.32157723 271.25855358 -16.22889519 269.34644318 C-17.59994133 267.9827344 -18.97160986 266.61965111 -20.3438549 265.25714874 C-24.07177263 261.55148657 -27.78995184 257.83619658 -31.50581002 254.11844611 C-34.60494371 251.01919295 -37.70840249 247.92428854 -40.81176394 244.82926971 C-48.12926615 237.53101481 -55.43854872 230.22459739 -62.74305534 222.91333771 C-70.28930157 215.36044385 -77.85019846 207.82244453 -85.41827565 200.29143113 C-91.90793143 193.83241207 -98.38794301 187.36382752 -104.86034793 180.88752204 C-108.7295562 177.01624066 -112.60249214 173.1488768 -116.48491669 169.29084587 C-120.13296131 165.6649671 -123.76887771 162.02735867 -127.39563942 158.38019562 C-128.73172176 157.04068561 -130.07212183 155.70546701 -131.41701508 154.37480354 C-133.24620341 152.56364656 -135.05945366 150.73792706 -136.86935234 148.90752411 C-137.41037852 148.37901578 -137.95140469 147.85050745 -138.5088256 147.30598372 C-141.95043053 143.77968748 -141.95043053 143.77968748 -142.15541649 141.15709877 C-140.41513137 138.14562971 -138.08142625 135.81970035 -135.62884331 133.3915329 C-134.7803744 132.53392733 -134.7803744 132.53392733 -133.9147647 131.6589964 C-132.01340399 129.74095778 -130.10145481 127.83383926 -128.18934441 125.9265213 C-126.82563563 124.55547516 -125.46255234 123.18380663 -124.10004997 121.81156158 C-120.3943878 118.08364386 -116.67909781 114.36546465 -112.96134734 110.64960647 C-109.86209418 107.55047278 -106.76718977 104.447014 -103.67217094 101.34365255 C-96.37391604 94.02615034 -89.06749862 86.71686777 -81.75623894 79.41236115 C-74.20334508 71.86611492 -66.66534576 64.30521803 -59.13433236 56.73714083 C-52.6753133 50.24748505 -46.20672875 43.76747348 -39.73042327 37.29506856 C-35.85914189 33.42586029 -31.99177803 29.55292435 -28.1337471 25.6704998 C-24.50786833 22.02245518 -20.8702599 18.38653878 -17.22309685 14.75977707 C-15.88358684 13.42369473 -14.54836824 12.08329465 -13.21770477 10.73840141 C-11.40654779 8.90921307 -9.58082829 7.09596283 -7.75042534 5.28606415 C-7.22191701 4.74503797 -6.69340868 4.2040118 -6.14888495 3.64659089 C-2.62258871 0.20498596 -2.62258871 0.20498596 0 0 Z M-77.99915886 142.15625763 C-73.43183663 147.54126232 -73.43183663 147.54126232 -68.64707756 152.66223907 C-68.05561943 153.26229767 -67.4641613 153.86235626 -66.8547802 154.48059845 C-66.22808434 155.11155426 -65.60138847 155.74251007 -64.95570183 156.39258575 C-64.2785009 157.07796417 -63.60129997 157.76334259 -62.9035778 158.46949005 C-60.68583845 160.71182941 -58.46415995 162.95019872 -56.24134636 165.18750763 C-55.47956203 165.95461563 -54.71777771 166.72172363 -53.93290901 167.51207733 C-49.91149543 171.56009247 -45.88650296 175.60451385 -41.85902214 179.646492 C-38.52516517 182.9937616 -35.19875471 186.34817759 -31.87855339 189.708992 C-27.86262736 193.77402606 -23.83476074 197.82684467 -19.79777718 201.87096405 C-18.26168926 203.41378708 -16.72987715 204.96087922 -15.20240211 206.51222992 C-13.07436038 208.67166467 -10.93133056 210.81502971 -8.78382683 212.95508575 C-8.1530825 213.60223541 -7.52233818 214.24938507 -6.87248039 214.91614532 C-4.94932825 216.87094155 -4.94932825 216.87094155 -1.99915886 219.15625763 C1.34065487 218.88828537 3.01510611 217.51566254 5.32914925 215.1954422 C5.96570946 214.56445114 6.60226967 213.93346008 7.25811958 213.28334808 C7.94504387 212.58720901 8.63196815 211.89106995 9.33970833 211.17383575 C10.07181023 210.44377823 10.80391212 209.7137207 11.55819893 208.96154022 C13.97869266 206.54405727 16.38826766 204.11599538 18.79771614 201.68750763 C20.47293504 200.00923211 22.14874446 198.33154584 23.82512093 196.65442657 C27.33668812 193.13825474 30.84328297 189.61722505 34.34605598 186.09229279 C38.84774059 181.56228224 43.35809828 177.04103488 47.87173271 172.52293396 C51.33104767 169.05947329 54.78752146 165.59318987 58.24294472 162.12584686 C59.90595104 160.45712354 61.56943979 158.78888085 63.23340797 157.12111664 C65.55143717 154.79625333 67.86603801 152.46803482 70.17955208 150.1386795 C71.22208389 149.0944709 71.22208389 149.0944709 72.28567696 148.02916718 C73.22359833 147.08268059 73.22359833 147.08268059 74.18046761 146.11707306 C74.72834812 145.56621788 75.27622864 145.0153627 75.84071159 144.44781494 C77.1122147 143.3216158 77.1122147 143.3216158 77.00084114 142.15625763 C25.85084114 142.15625763 -25.29915886 142.15625763 -77.99915886 142.15625763 Z " fill="#16B3BA" transform="translate(141.99915885925293,-0.15625762939453125)"/>
</svg>
